HIERARCHY
ROOT Hips
{
	OFFSET 0.000000 0.000000 0.000000
	CHANNELS 6 Xposition Yposition Zposition Xrotation Yrotation Zrotation
	JOINT Spine
	{
		OFFSET 0.000000 0.053497 0.080245
		CHANNELS 3 Xrotation Yrotation Zrotation
		JOINT Spine1
		{
			OFFSET 0.000000 0.018579 0.105368
			CHANNELS 3 Xrotation Yrotation Zrotation
			JOINT Spine2
			{
				OFFSET 0.000000 0.009325 0.106586
				CHANNELS 3 Xrotation Yrotation Zrotation
				JOINT Spine3
				{
					OFFSET 0.000000 0.000000 0.106993
					CHANNELS 3 Xrotation Yrotation Zrotation
					JOINT Neck
					{
						OFFSET 0.000000 -0.040122 0.280858
						CHANNELS 3 Xrotation Yrotation Zrotation
						JOINT Head
						{
							OFFSET 0.000000 -0.025546 0.144881
							CHANNELS 3 Xrotation Yrotation Zrotation
							End Site
							{
								OFFSET 0.000000 0.000000 0.000000
							}
						}
					}
					JOINT RightShoulder
					{
						OFFSET -0.032541 -0.054234 0.175720
						CHANNELS 3 Xrotation Yrotation Zrotation
						JOINT RightArm
						{
							OFFSET -0.161619 0.000000 0.000000
							CHANNELS 3 Xrotation Yrotation Zrotation
							JOINT RightForeArm
							{
								OFFSET -0.257104 0.000000 0.000000
								CHANNELS 3 Xrotation Yrotation Zrotation
								JOINT RightHand
								{
									OFFSET -0.273485 0.000000 0.000000
									CHANNELS 3 Xrotation Yrotation Zrotation
									JOINT RightHandEnd
									{
										OFFSET -0.070844 0.000000 0.000000
										CHANNELS 3 Xrotation Yrotation Zrotation
										End Site
										{
											OFFSET 0.000000 0.000000 0.000000
										}
									}
									JOINT RightHandThumb1
									{
										OFFSET -0.028338 -0.047230 -0.018892
										CHANNELS 3 Xrotation Yrotation Zrotation
										End Site
										{
											OFFSET 0.000000 0.000000 0.000000
										}
									}
								}
							}
						}
					}
					JOINT LeftShoulder
					{
						OFFSET 0.032541 -0.054234 0.175720
						CHANNELS 3 Xrotation Yrotation Zrotation
						JOINT LeftArm
						{
							OFFSET 0.161619 0.000000 0.000000
							CHANNELS 3 Xrotation Yrotation Zrotation
							JOINT LeftForeArm
							{
								OFFSET 0.257104 0.000000 0.000000
								CHANNELS 3 Xrotation Yrotation Zrotation
								JOINT LeftHand
								{
									OFFSET 0.273485 0.000000 0.000000
									CHANNELS 3 Xrotation Yrotation Zrotation
									JOINT LeftHandEnd
									{
										OFFSET 0.070844 0.000000 0.000000
										CHANNELS 3 Xrotation Yrotation Zrotation
										End Site
										{
											OFFSET 0.000000 0.000000 0.000000
										}
									}
									JOINT LeftHandThumb1
									{
										OFFSET 0.028338 -0.047230 -0.018892
										CHANNELS 3 Xrotation Yrotation Zrotation
										End Site
										{
											OFFSET 0.000000 0.000000 0.000000
										}
									}
								}
							}
						}
					}
				}
			}
		}
	}
	JOINT RightUpLeg
	{
		OFFSET -0.096537 0.000000 -0.028202
		CHANNELS 3 Xrotation Yrotation Zrotation
		JOINT RightLeg
		{
			OFFSET 0.000000 0.000000 -0.431842
			CHANNELS 3 Xrotation Yrotation Zrotation
			JOINT RightFoot
			{
				OFFSET 0.000000 0.000000 -0.456398
				CHANNELS 3 Xrotation Yrotation Zrotation
				JOINT RightToeBase
				{
					OFFSET 0.000000 -0.128905 -0.046918
					CHANNELS 3 Xrotation Yrotation Zrotation
					End Site
					{
						OFFSET 0.000000 0.000000 0.000000
					}
				}
			}
		}
	}
	JOINT LeftUpLeg
	{
		OFFSET 0.096537 0.000000 -0.028202
		CHANNELS 3 Xrotation Yrotation Zrotation
		JOINT LeftLeg
		{
			OFFSET 0.000000 0.000000 -0.431842
			CHANNELS 3 Xrotation Yrotation Zrotation
			JOINT LeftFoot
			{
				OFFSET 0.000000 0.000000 -0.456398
				CHANNELS 3 Xrotation Yrotation Zrotation
				JOINT LeftToeBase
				{
					OFFSET 0.000000 -0.128905 -0.046918
					CHANNELS 3 Xrotation Yrotation Zrotation
					End Site
					{
						OFFSET 0.000000 0.000000 0.000000
					}
				}
			}
		}
	}
}
MOTION
Frames: 4
Frame Time: 0.033333
0.215405 -0.199316 0.290561 0.358200 -82.146400 -94.168100 0.312300 -3.302400 0.662100 0.181000 -2.239200 0.050300 5.602600 1.697700 1.096300 1.587800 0.177300 -0.054400 4.958400 10.654100 0.710300 1.122100 -3.256500 1.815200 -7.717400 -2.063700 26.709500 -64.993700 -47.003900 -8.580400 0.000000 0.000100 100.989300 60.030100 17.751700 -6.575300 0.000000 0.000000 0.000000 0.000000 0.000000 0.000000 -6.363300 8.353400 -23.279900 -28.735600 55.318500 -36.647000 -0.000100 -0.000100 -97.963200 74.216900 -9.917600 28.344300 0.000000 0.000000 0.000000 0.000000 0.000000 0.000000 -11.233600 -4.033900 14.481000 20.662200 0.000000 0.000000 -32.443500 1.116000 -13.575400 -45.661700 0.000000 0.000000 -8.320300 0.985000 -11.266000 15.690900 0.000000 0.000000 -37.911900 26.330700 16.251100 -49.032400 0.000000 0.000000 
0.213413 -0.188951 0.282837 3.114300 -81.647400 -88.031200 -0.169200 -2.771400 0.453500 -0.123800 -1.716800 -0.013400 5.990500 0.734000 -0.341300 1.749100 0.096000 -0.011700 6.402500 8.970400 -0.677400 0.957500 -2.938200 1.926200 -7.424400 -2.687000 24.553800 -64.126000 -48.213900 -8.274400 0.000000 0.000100 101.799600 61.135300 17.028700 -7.083700 0.000000 0.000000 0.000000 0.000000 0.000000 0.000000 -5.736400 8.048100 -24.508100 -28.668200 55.090800 -36.516200 -0.000100 -0.000100 -98.053600 73.767600 -9.966000 28.137200 0.000000 0.000000 0.000000 0.000000 0.000000 0.000000 -10.125000 -4.802500 12.255000 20.933800 0.000000 0.000000 -32.377300 2.926800 -14.778100 -46.157200 0.000000 0.000000 -7.721400 0.493500 -12.577000 15.990000 0.000000 0.000000 -37.924400 27.452100 16.261100 -49.332200 0.000000 0.000000 
0.211171 -0.180165 0.275603 5.648500 -81.108000 -83.217400 -0.574200 -2.259900 0.278100 -0.352900 -1.271500 -0.058800 6.276700 -0.234500 -1.342600 1.905800 -0.095100 0.162400 7.630300 7.463200 -1.658000 0.884400 -2.830600 2.055500 -7.281400 -3.321200 23.096300 -63.087300 -49.040800 -7.858500 -0.000100 0.000100 102.283600 62.022900 16.594700 -7.368100 0.000000 0.000000 0.000000 0.000000 0.000000 0.000000 -5.139200 8.060400 -25.443500 -28.602400 54.892400 -36.380400 -0.000100 -0.000100 -98.038300 73.692700 -9.995000 28.057200 0.000000 0.000000 0.000000 0.000000 0.000000 0.000000 -9.117800 -5.612100 10.517900 21.071600 0.000000 0.000000 -32.014400 4.044000 -15.430500 -46.907900 0.000000 0.000000 -7.105500 0.073100 -13.286600 16.388900 0.000000 0.000000 -38.342600 27.937900 17.104900 -49.988500 0.000000 0.000000 
0.209067 -0.173731 0.269504 8.104500 -80.669200 -79.598900 -0.847800 -1.992000 0.182100 -0.523800 -1.062500 -0.084700 6.430700 -0.885400 -1.832100 2.019400 -0.246300 0.315900 8.423700 6.347500 -2.287200 0.838300 -2.984000 2.005600 -7.162300 -3.730700 22.289300 -62.317600 -49.532000 -7.676200 -0.000100 0.000100 102.801700 62.519300 16.096000 -7.585000 0.000000 0.000000 0.000000 0.000000 0.000000 0.000000 -4.681500 8.163300 -25.843400 -28.319000 54.792600 -36.433700 -0.000100 -0.000100 -98.097700 73.813900 -10.011800 28.088100 0.000000 0.000000 0.000000 0.000000 0.000000 0.000000 -8.323600 -6.377300 9.729800 21.105600 0.000000 0.000000 -31.473100 4.703200 -15.676000 -47.665400 0.000000 0.000000 -6.554300 -0.274700 -13.046700 16.733800 0.000000 0.000000 -39.015100 27.887700 18.353000 -50.630100 0.000000 0.000000 
